<svg id="Group_799" data-name="Group 799" xmlns="http://www.w3.org/2000/svg" xmlns:xlink="http://www.w3.org/1999/xlink" width="24" height="24" viewBox="0 0 24 24">
  <defs>
    <clipPath id="clip-path">
      <rect id="Rectangle_40" data-name="Rectangle 40" width="24" height="24" fill="none"/>
    </clipPath>
  </defs>
  <g id="Group_798" data-name="Group 798" clip-path="url(#clip-path)">
    <path id="Path_2" data-name="Path 2" d="M23.96,1.117A1.28,1.28,0,0,0,22.883.039,1.438,1.438,0,0,1,22.74,0H1.26a1.436,1.436,0,0,1-.142.039A1.281,1.281,0,0,0,.039,1.118C.031,1.166.013,1.213,0,1.26V22.74a1.461,1.461,0,0,1,.039.142,1.282,1.282,0,0,0,1.08,1.079A.893.893,0,0,1,1.24,24H12.8c0-.05.005-.1.005-.15q0-4.515,0-9.03v-.115H9.8c-.133,0-.134,0-.134-.129,0-1.127,0-2.253,0-3.38,0-.1.031-.129.131-.128.96,0,1.92,0,2.88,0h.134c0-.039,0-.074,0-.109,0-.937-.006-1.873.008-2.81A5.109,5.109,0,0,1,13.3,5.986,3.928,3.928,0,0,1,15.4,4a4.943,4.943,0,0,1,1.988-.377c.786.012,1.572.047,2.358.075.146.005.292.03.438.038.081,0,.109.034.108.116,0,.467,0,.933,0,1.4,0,.55,0,1.1,0,1.65,0,.1-.027.125-.124.124-.6,0-1.193-.011-1.79,0a4.26,4.26,0,0,0-.81.094,1.133,1.133,0,0,0-.914.957,3.365,3.365,0,0,0-.066.623c-.008.763,0,1.527,0,2.29,0,.023,0,.046.005.08h3.43c.144,0,.146,0,.129.137-.078.6-.158,1.2-.236,1.8q-.1.752-.187,1.505c-.023.191-.018.192-.211.192h-2.93v.145q0,4.465,0,8.929c0,.073,0,.147,0,.22h6.18a.881.881,0,0,1,.121-.039,1.282,1.282,0,0,0,1.08-1.08A.917.917,0,0,1,24,22.76V1.26a1.406,1.406,0,0,1-.04-.143" fill="#fff"/>
  </g>
</svg>
