<svg xmlns="http://www.w3.org/2000/svg" xmlns:xlink="http://www.w3.org/1999/xlink" width="24" height="19.504" viewBox="0 0 24 19.504">
  <defs>
    <clipPath id="clip-path">
      <rect id="Rectangle_42" data-name="Rectangle 42" width="24" height="19.504" fill="#fff"/>
    </clipPath>
  </defs>
  <g id="Group_803" data-name="Group 803" transform="translate(0 -4)">
    <g id="Group_802" data-name="Group 802" transform="translate(0 4)" clip-path="url(#clip-path)">
      <path id="Path_4" data-name="Path 4" d="M24,2.31a9.841,9.841,0,0,1-2.828.775A4.938,4.938,0,0,0,23.337.361,9.857,9.857,0,0,1,20.21,1.556a4.928,4.928,0,0,0-8.39,4.491A13.979,13.979,0,0,1,1.671.9,4.929,4.929,0,0,0,3.195,7.476,4.9,4.9,0,0,1,.964,6.86c0,.021,0,.041,0,.062a4.927,4.927,0,0,0,3.95,4.828,4.936,4.936,0,0,1-2.224.084,4.929,4.929,0,0,0,4.6,3.419,9.878,9.878,0,0,1-6.115,2.108A9.985,9.985,0,0,1,0,17.293a13.936,13.936,0,0,0,7.548,2.212A13.914,13.914,0,0,0,21.557,5.5q0-.32-.014-.637A10.006,10.006,0,0,0,24,2.31" transform="translate(0 -0.001)" fill="#fff"/>
    </g>
  </g>
</svg>
